<svg width="180" height="60" viewBox="0 0 180 60" fill="none" xmlns="http://www.w3.org/2000/svg">
  <rect width="180" height="60" rx="10" fill="#212223" stroke="#FECC57" stroke-width="1"/>
  <path d="M42.5 20C42.5 18.3431 43.8431 17 45.5 17H134.5C136.157 17 137.5 18.3431 137.5 20V40C137.5 41.6569 136.157 43 134.5 43H45.5C43.8431 43 42.5 41.6569 42.5 40V20Z" fill="#212223"/>
  <path d="M59.5 37.42H58.36V31.18H56.56V30.14H61.26V31.18H59.5V37.42Z" fill="#FECC57"/>
  <path d="M67.5 37.42H62.5V30.14H67.3V31.18H63.64V33.22H67.06V34.24H63.64V36.38H67.5V37.42Z" fill="#FECC57"/>
  <path d="M74.5 37.42H73.36V34.24H70.36V37.42H69.22V30.14H70.36V33.2H73.36V30.14H74.5V37.42Z" fill="#FECC57"/>
  <path d="M81.5 37.42H76.5V30.14H81.3V31.18H77.64V33.22H81.06V34.24H77.64V36.38H81.5V37.42Z" fill="#FECC57"/>
  <path d="M88.5 37.42H87.36V31.18H85.56V30.14H90.26V31.18H88.5V37.42Z" fill="#FECC57"/>
  <path d="M96.5 37.42H91.5V30.14H92.64V36.38H96.5V37.42Z" fill="#FECC57"/>
  <path d="M103.5 37.42H98.5V30.14H103.3V31.18H99.64V33.22H103.06V34.24H99.64V36.38H103.5V37.42Z" fill="#FECC57"/>
  <path d="M110.5 37.42H109.36V34.24H106.36V37.42H105.22V30.14H106.36V33.2H109.36V30.14H110.5V37.42Z" fill="#FECC57"/>
  <path d="M117.5 37.42H112.5V30.14H117.3V31.18H113.64V33.22H117.06V34.24H113.64V36.38H117.5V37.42Z" fill="#FECC57"/>
  <path d="M124.5 37.42H123.36V31.18H121.56V30.14H126.26V31.18H124.5V37.42Z" fill="#FECC57"/>
  <path d="M59.5 25.42H58.36V19.18H56.56V18.14H61.26V19.18H59.5V25.42Z" fill="#FECC57"/>
  <path d="M67.5 25.42H62.5V18.14H67.3V19.18H63.64V21.22H67.06V22.24H63.64V24.38H67.5V25.42Z" fill="#FECC57"/>
  <path d="M74.5 25.42H73.36V22.24H70.36V25.42H69.22V18.14H70.36V21.2H73.36V18.14H74.5V25.42Z" fill="#FECC57"/>
  <path d="M81.5 25.42H76.5V18.14H81.3V19.18H77.64V21.22H81.06V22.24H77.64V24.38H81.5V25.42Z" fill="#FECC57"/>
  <path d="M88.5 25.42H87.36V19.18H85.56V18.14H90.26V19.18H88.5V25.42Z" fill="#FECC57"/>
  <path d="M96.5 25.42H91.5V18.14H92.64V24.38H96.5V25.42Z" fill="#FECC57"/>
  <path d="M103.5 25.42H98.5V18.14H103.3V19.18H99.64V21.22H103.06V22.24H99.64V24.38H103.5V25.42Z" fill="#FECC57"/>
  <path d="M110.5 25.42H109.36V22.24H106.36V25.42H105.22V18.14H106.36V21.2H109.36V18.14H110.5V25.42Z" fill="#FECC57"/>
  <path d="M117.5 25.42H112.5V18.14H117.3V19.18H113.64V21.22H117.06V22.24H113.64V24.38H117.5V25.42Z" fill="#FECC57"/>
  <path d="M124.5 25.42H123.36V19.18H121.56V18.14H126.26V19.18H124.5V25.42Z" fill="#FECC57"/>
</svg>
